<svg xmlns="http://www.w3.org/2000/svg" version="1.1" xmlns:xlink="http://www.w3.org/1999/xlink" xmlns:svgjs="http://svgjs.dev/svgjs" viewBox="0 0 2400 800" opacity="1"><g fill="hsla(126, 19%, 58%, 1.00)" transform="matrix(1,0,0,1,6.8720703125,236.08307266235352)"><path d="M-10,10C63.51190476190476,15.208333333333334,197.91666666666666,42.5,342.85714285714283,35C487.79761904761904,27.5,542.8571428571429,-27.25,685.7142857142857,-26C828.5714285714284,-24.75,885.7142857142856,36.416666666666664,1028.5714285714284,41C1171.4285714285713,45.583333333333336,1228.5714285714284,-10.041666666666666,1371.4285714285713,-4C1514.2857142857142,2.041666666666666,1571.4285714285713,80.20833333333333,1714.2857142857142,70C1857.142857142857,59.79166666666667,1914.285714285714,-47.791666666666664,2057.142857142857,-53C2199.9999999999995,-58.208333333333336,2276.4880952380954,-49.375,2400,45C2523.5119047619046,139.375,3254.1666666666665,221.875,2650,400C2045.8333333333335,578.125,156.25,795.8333333333334,-500,900" transform="matrix(1,0,0,1,0,47)" opacity="0.05"></path><path d="M-10,10C63.51190476190476,15.208333333333334,197.91666666666666,42.5,342.85714285714283,35C487.79761904761904,27.5,542.8571428571429,-27.25,685.7142857142857,-26C828.5714285714284,-24.75,885.7142857142856,36.416666666666664,1028.5714285714284,41C1171.4285714285713,45.583333333333336,1228.5714285714284,-10.041666666666666,1371.4285714285713,-4C1514.2857142857142,2.041666666666666,1571.4285714285713,80.20833333333333,1714.2857142857142,70C1857.142857142857,59.79166666666667,1914.285714285714,-47.791666666666664,2057.142857142857,-53C2199.9999999999995,-58.208333333333336,2276.4880952380954,-49.375,2400,45C2523.5119047619046,139.375,3254.1666666666665,221.875,2650,400C2045.8333333333335,578.125,156.25,795.8333333333334,-500,900" transform="matrix(1,0,0,1,0,94)" opacity="0.29"></path><path d="M-10,10C63.51190476190476,15.208333333333334,197.91666666666666,42.5,342.85714285714283,35C487.79761904761904,27.5,542.8571428571429,-27.25,685.7142857142857,-26C828.5714285714284,-24.75,885.7142857142856,36.416666666666664,1028.5714285714284,41C1171.4285714285713,45.583333333333336,1228.5714285714284,-10.041666666666666,1371.4285714285713,-4C1514.2857142857142,2.041666666666666,1571.4285714285713,80.20833333333333,1714.2857142857142,70C1857.142857142857,59.79166666666667,1914.285714285714,-47.791666666666664,2057.142857142857,-53C2199.9999999999995,-58.208333333333336,2276.4880952380954,-49.375,2400,45C2523.5119047619046,139.375,3254.1666666666665,221.875,2650,400C2045.8333333333335,578.125,156.25,795.8333333333334,-500,900" transform="matrix(1,0,0,1,0,141)" opacity="0.53"></path><path d="M-10,10C63.51190476190476,15.208333333333334,197.91666666666666,42.5,342.85714285714283,35C487.79761904761904,27.5,542.8571428571429,-27.25,685.7142857142857,-26C828.5714285714284,-24.75,885.7142857142856,36.416666666666664,1028.5714285714284,41C1171.4285714285713,45.583333333333336,1228.5714285714284,-10.041666666666666,1371.4285714285713,-4C1514.2857142857142,2.041666666666666,1571.4285714285713,80.20833333333333,1714.2857142857142,70C1857.142857142857,59.79166666666667,1914.285714285714,-47.791666666666664,2057.142857142857,-53C2199.9999999999995,-58.208333333333336,2276.4880952380954,-49.375,2400,45C2523.5119047619046,139.375,3254.1666666666665,221.875,2650,400C2045.8333333333335,578.125,156.25,795.8333333333334,-500,900" transform="matrix(1,0,0,1,0,188)" opacity="0.76"></path><path d="M-10,10C63.51190476190476,15.208333333333334,197.91666666666666,42.5,342.85714285714283,35C487.79761904761904,27.5,542.8571428571429,-27.25,685.7142857142857,-26C828.5714285714284,-24.75,885.7142857142856,36.416666666666664,1028.5714285714284,41C1171.4285714285713,45.583333333333336,1228.5714285714284,-10.041666666666666,1371.4285714285713,-4C1514.2857142857142,2.041666666666666,1571.4285714285713,80.20833333333333,1714.2857142857142,70C1857.142857142857,59.79166666666667,1914.285714285714,-47.791666666666664,2057.142857142857,-53C2199.9999999999995,-58.208333333333336,2276.4880952380954,-49.375,2400,45C2523.5119047619046,139.375,3254.1666666666665,221.875,2650,400C2045.8333333333335,578.125,156.25,795.8333333333334,-500,900" transform="matrix(1,0,0,1,0,235)" opacity="1.00"></path></g></svg>